<?xml version="1.0" encoding="UTF-8"?>
<svg id="Layer_1" data-name="Layer 1" xmlns="http://www.w3.org/2000/svg" viewBox="0 0 2037.03 402.21">
  <defs>
    <style>
      .cls-1 {
        fill: #0ea5e9;
      }
    </style>
  </defs>
  <g>
    <ellipse class="cls-1" cx="139.86" cy="162.17" rx="33.29" ry="43.01"/>
    <ellipse class="cls-1" cx="255.9" cy="162.17" rx="43.06" ry="52.94"/>
    <path class="cls-1" d="m404.06,38.19c-1.06-5.18-3.66-9.93-7.45-13.62-6.87-6.68-16.82-11-33.26-14.43-10.97-2.29-25.28-4.24-42.53-5.8C289.21,1.5,248.53,0,203.16,0s-86.05,1.5-117.66,4.35c-17.25,1.55-31.56,3.5-42.53,5.8-16.44,3.44-26.39,7.75-33.26,14.43-3.79,3.69-6.39,8.43-7.45,13.62C1.01,44.26-.55,56.39.19,91.54c.47,21.89,1.79,49.13,3.73,76.69,1.95,27.69,4.41,54.22,6.94,74.68,4.19,33.93,7.56,44.06,10.58,49.96,2.95,5.76,7.92,10.24,13.96,12.58,5.38,2.08,14.35,4.76,33.75,7.28.68,25.51,3.6,43.05,10.41,64.66,2.51,7.97,8.65,14.28,16.55,17.01,14.91,5.14,42.53,7.37,66.2,7.82,5.87.11,10.84-4.25,11.56-10.08,1.19-9.62,1.06-21.93-.24-31.14-.78-5.52-5.43-9.65-11.01-9.82-10.17-.31-26.21-1.21-36.62-3.75-2.15-9.4-3.35-18.72-3.9-30.21,25.56,1.41,55.11,2.23,81.06,2.23s55.49-.82,81.06-2.23c-.54,11.49-1.74,20.8-3.9,30.21-10.41,2.54-26.45,3.44-36.62,3.75-5.58.17-10.23,4.29-11.01,9.82-1.31,9.21-1.44,21.51-.24,31.14.72,5.82,5.7,10.19,11.56,10.08,23.67-.46,51.29-2.68,66.2-7.82,7.9-2.73,14.04-9.04,16.55-17.01,6.8-21.61,9.72-39.14,10.41-64.66,19.39-2.52,28.37-5.2,33.75-7.28,6.04-2.34,11.01-6.81,13.96-12.58,3.02-5.9,6.39-16.03,10.58-49.96,2.53-20.46,4.99-46.98,6.94-74.68,1.94-27.56,3.26-54.8,3.73-76.69.75-35.14-.82-47.27-2.06-53.34Zm-50.64,50.57c-.39,20.21-1.59,45.69-3.36,71.73-1.77,26.01-4.04,51.29-6.38,71.2-1.5,12.79-2.82,21.49-3.85,27.32-9,1.52-24.09,3.39-48.92,4.97-26.57,1.7-59.38,2.72-87.76,2.72s-61.18-1.02-87.76-2.72c-24.82-1.59-39.92-3.46-48.92-4.97-1.03-5.83-2.34-14.53-3.85-27.32-2.34-19.9-4.61-45.19-6.38-71.2-1.78-26.04-2.97-51.52-3.36-71.73-.24-12.12-.15-20.74.04-26.81,7.74-1.67,21.32-3.83,44.32-5.67,29.06-2.32,65.67-3.54,105.9-3.54s76.84,1.22,105.9,3.54c23,1.83,36.58,4,44.32,5.67.2,6.06.28,14.69.04,26.81Z"/>
  </g>
  <g>
    <path class="cls-1" d="m635.58,298.4c-15.64-9.15-27.97-21.53-36.98-37.13-9.01-15.6-13.52-32.73-13.52-51.42s4.5-35.82,13.52-51.42c9.01-15.6,21.32-27.9,36.91-36.92,15.6-9.01,32.92-13.52,51.98-13.52s36.24,4.53,51.84,13.59c15.6,9.06,27.9,21.37,36.92,36.92,9.01,15.55,13.52,32.67,13.52,51.35s-4.51,35.7-13.52,51.35c-9.01,15.64-21.34,28.04-36.99,37.2-15.64,9.15-32.9,13.73-51.77,13.73s-36.26-4.57-51.91-13.73Zm77.26-41.68c7.84-4.72,14.1-11.21,18.77-19.47,4.67-8.27,7-17.35,7-27.25s-2.36-18.96-7.07-27.18c-4.72-8.22-11-14.69-18.84-19.4-7.85-4.71-16.25-7.07-25.22-7.07s-17.51,2.36-25.36,7.07c-7.85,4.72-14.13,11.19-18.84,19.4-4.72,8.22-7.07,17.28-7.07,27.18s2.36,18.96,7.07,27.18c4.71,8.22,11.02,14.71,18.91,19.47,7.89,4.76,16.32,7.14,25.29,7.14s17.51-2.36,25.36-7.07Z"/>
    <path class="cls-1" d="m907.3,308.63h-36.42c-3.18,0-5.32-1.49-6.44-4.48l-61.22-158.59c-.37-.75-.56-1.54-.56-2.38,0-1.21.44-2.19,1.33-2.94.89-.75,2.12-1.12,3.71-1.12h40.91c3.36,0,5.51,1.54,6.44,4.62l34.04,107.31,34.18-107.31c.93-3.08,3.08-4.62,6.44-4.62h40.91c1.49,0,2.71.35,3.64,1.05.93.7,1.4,1.66,1.4,2.87,0,.93-.19,1.78-.56,2.52l-61.36,158.59c-1.12,2.99-3.27,4.48-6.44,4.48Z"/>
    <path class="cls-1" d="m1024.41,300.92c-13.45-7.94-23.93-18.63-31.45-32.08-7.52-13.45-11.28-28.11-11.28-43.99s3.57-30.84,10.72-44.34c7.14-13.5,17.11-24.24,29.91-32.22,12.79-7.99,27.32-11.98,43.57-11.98,17.56,0,32.78,3.78,45.67,11.35,12.89,7.56,22.72,18.03,29.49,31.38,6.77,13.36,10.16,28.53,10.16,45.53,0,3.74-.19,7.42-.56,11.07-.37,3.46-2.34,5.18-5.88,5.18h-114.18c3.08,9.34,8.36,16.63,15.83,21.86,7.47,5.23,15.97,7.85,25.5,7.85,6.07,0,11.56-.86,16.46-2.59,4.9-1.73,9.69-4.22,14.36-7.49,1.21-.93,2.43-1.4,3.64-1.4,1.49,0,2.85.84,4.06,2.52l17.23,24.52c.84,1.21,1.26,2.38,1.26,3.5,0,1.59-.75,2.99-2.24,4.2-7.75,6.07-16.42,10.77-25.99,14.08-9.58,3.31-19.82,4.97-30.75,4.97-16.91,0-32.08-3.97-45.53-11.91Zm66.27-116.42c-6.35-4.95-14.1-7.42-23.26-7.42s-16.74,2.52-23.33,7.56c-6.58,5.04-11.23,12.1-13.94,21.16h73.97c-2.62-9.25-7.1-16.34-13.45-21.3Z"/>
    <path class="cls-1" d="m1302.78,146.26c1.96,1.21,2.94,2.71,2.94,4.48,0,1.03-.28,2.1-.84,3.22l-16.11,30.26c-1.12,2.06-2.57,3.08-4.34,3.08-1.12,0-2.2-.33-3.22-.98-6.72-3.73-13.17-5.6-19.33-5.6s-11.51,1.68-16.88,5.04c-5.37,3.36-9.74,8.34-13.1,14.92-3.36,6.58-5.04,14.5-5.04,23.75v78.59c0,3.74-1.87,5.6-5.6,5.6h-36.42c-3.74,0-5.6-1.87-5.6-5.6v-158.31c0-3.73,1.87-5.6,5.6-5.6h27.88c3.08,0,5.23,1.45,6.44,4.34l6.86,16.39c4.39-7.28,10.27-13.03,17.65-17.23,7.38-4.2,15.74-6.3,25.08-6.3,11.49,0,22.84,3.32,34.04,9.95Z"/>
    <path class="cls-1" d="m1347.26,301c-13.31-7.89-23.72-18.56-31.24-32.01-7.52-13.45-11.28-28.16-11.28-44.13s3.73-30.98,11.21-44.48c7.47-13.5,17.88-24.21,31.24-32.15,13.36-7.94,28.44-11.91,45.25-11.91,11.02,0,21.37,1.64,31.03,4.9,9.67,3.27,18.33,7.89,25.99,13.87,1.59,1.31,2.38,2.71,2.38,4.2,0,1.12-.42,2.34-1.26,3.64l-17.79,25.36c-1.22,1.78-2.62,2.66-4.2,2.66-1.03,0-2.24-.47-3.64-1.4-4.76-3.27-9.53-5.74-14.29-7.42s-10.23-2.52-16.39-2.52c-7.56,0-14.57,1.96-21.01,5.88-6.44,3.92-11.58,9.32-15.41,16.18-3.83,6.86-5.74,14.59-5.74,23.19s1.94,16.02,5.81,22.84c3.87,6.82,9.06,12.17,15.55,16.04,6.49,3.88,13.47,5.81,20.94,5.81,6.07,0,11.51-.82,16.32-2.45,4.81-1.63,9.55-4.08,14.22-7.36,1.4-.93,2.61-1.4,3.64-1.4,1.59,0,2.99.89,4.2,2.66l17.79,25.36c.93,1.31,1.4,2.57,1.4,3.78s-.56,2.34-1.68,3.36c-7.75,6.16-16.53,10.93-26.34,14.29-9.81,3.36-20.41,5.04-31.8,5.04-16.62,0-31.59-3.95-44.9-11.84Z"/>
    <path class="cls-1" d="m1603.71,139.11h26.9c3.73,0,5.6,1.87,5.6,5.6v158.31c0,3.74-1.87,5.6-5.6,5.6h-27.88c-3.08,0-5.23-1.45-6.44-4.34l-3.5-8.4c-11.68,10.93-26.34,16.39-43.99,16.39-15.97,0-30.68-3.94-44.13-11.84-13.45-7.89-24.1-18.58-31.94-32.08-7.85-13.5-11.77-28.27-11.77-44.34s3.94-30.66,11.84-44.06c7.89-13.4,18.56-24.03,32.01-31.87,13.45-7.85,28.11-11.77,43.99-11.77,17.84,0,32.64,5.56,44.41,16.67l4.06-9.53c1.21-2.89,3.36-4.34,6.44-4.34Zm-32.85,122.23c6.4-3.59,11.44-8.59,15.13-14.99,3.69-6.4,5.53-13.61,5.53-21.65s-1.82-15.43-5.46-21.93c-3.64-6.49-8.64-11.6-14.99-15.34-6.35-3.73-13.4-5.6-21.15-5.6s-14.78,1.85-21.08,5.53c-6.3,3.69-11.26,8.8-14.85,15.34-3.6,6.54-5.39,13.87-5.39,22s1.77,15.36,5.32,21.72c3.55,6.35,8.43,11.33,14.64,14.92,6.21,3.6,13.24,5.39,21.08,5.39s14.83-1.8,21.22-5.39Z"/>
    <path class="cls-1" d="m1797.46,89.38h36.42c3.73,0,5.6,1.87,5.6,5.6v208.04c0,3.74-1.87,5.6-5.6,5.6h-27.88c-3.08,0-5.23-1.45-6.44-4.34l-3.5-8.4c-11.68,10.93-26.34,16.39-43.99,16.39-15.97,0-30.68-3.94-44.13-11.84-13.45-7.89-24.1-18.58-31.94-32.08-7.85-13.5-11.77-28.27-11.77-44.34s3.94-30.66,11.84-44.06c7.89-13.4,18.56-24.03,32.01-31.87,13.45-7.85,28.11-11.77,43.99-11.77s28.86,4.25,39.79,12.75v-54.08c0-3.73,1.87-5.6,5.6-5.6Zm-23.33,171.97c6.4-3.59,11.44-8.59,15.13-14.99,3.69-6.4,5.53-13.61,5.53-21.65s-1.82-15.43-5.46-21.93c-3.64-6.49-8.64-11.6-14.99-15.34-6.35-3.73-13.4-5.6-21.15-5.6s-14.78,1.85-21.08,5.53c-6.3,3.69-11.26,8.8-14.85,15.34-3.6,6.54-5.39,13.87-5.39,22s1.77,15.36,5.32,21.72c3.55,6.35,8.43,11.33,14.64,14.92,6.21,3.6,13.24,5.39,21.08,5.39s14.83-1.8,21.22-5.39Z"/>
    <path class="cls-1" d="m1910.24,300.92c-13.45-7.94-23.93-18.63-31.45-32.08-7.52-13.45-11.28-28.11-11.28-43.99s3.57-30.84,10.72-44.34c7.14-13.5,17.11-24.24,29.91-32.22,12.79-7.99,27.32-11.98,43.57-11.98,17.56,0,32.78,3.78,45.67,11.35,12.89,7.56,22.72,18.03,29.49,31.38,6.77,13.36,10.16,28.53,10.16,45.53,0,3.74-.19,7.42-.56,11.07-.37,3.46-2.34,5.18-5.88,5.18h-114.18c3.08,9.34,8.36,16.63,15.83,21.86,7.47,5.23,15.97,7.85,25.5,7.85,6.07,0,11.56-.86,16.46-2.59,4.9-1.73,9.69-4.22,14.36-7.49,1.21-.93,2.43-1.4,3.64-1.4,1.49,0,2.85.84,4.06,2.52l17.23,24.52c.84,1.21,1.26,2.38,1.26,3.5,0,1.59-.75,2.99-2.24,4.2-7.75,6.07-16.42,10.77-25.99,14.08-9.58,3.31-19.82,4.97-30.75,4.97-16.91,0-32.08-3.97-45.53-11.91Zm66.27-116.42c-6.35-4.95-14.1-7.42-23.26-7.42s-16.74,2.52-23.33,7.56c-6.58,5.04-11.23,12.1-13.94,21.16h73.97c-2.62-9.25-7.1-16.34-13.45-21.3Z"/>
  </g>
</svg>